<svg width="323" viewBox="0 0 323 390" fill="none" xmlns="http://www.w3.org/2000/svg"><path d="M29.8667 65.2676L144.367 112.914C155.397 117.565 167.869 117.565 178.904 112.914L293.405 65.2676" stroke="#22c55e" stroke-width="43.0936" stroke-miterlimit="10" stroke-linecap="round"></path><mask id="mask0_302_733" maskUnits="userSpaceOnUse" x="8" y="43" width="307" height="95"><path d="M29.8667 65.2676L144.367 112.914C155.397 117.565 167.869 117.565 178.904 112.914L293.405 65.2676" stroke="#22c55e" stroke-width="43.0936" stroke-miterlimit="10" stroke-linecap="round"></path></mask><g mask="url(#mask0_302_733)"><g filter="url(#filter0_f_302_733)"><circle cx="336.673" cy="65.2679" r="74.7347" fill="#15803d"></circle></g><g filter="url(#filter1_f_302_733)"><circle cx="-17.3342" cy="65.2679" r="74.7347" fill="#15803d"></circle></g></g><path d="M163.603 368.14C122.941 368.14 22 264.083 22 212.591V72.3812C22 65.4211 26.6786 59.3182 33.4203 57.4798L163.603 22" stroke="#22c55e" stroke-width="43.0936" stroke-miterlimit="10" stroke-linecap="round"></path><path d="M163.603 368.14C203.134 368.14 301.272 264.083 301.272 212.591V72.3812C301.272 65.4211 296.723 59.3182 290.169 57.4798L163.603 22" stroke="#22c55e" stroke-width="43.0936" stroke-miterlimit="10" stroke-linecap="round"></path><defs><filter id="filter0_f_302_733" x="169.595" y="-101.81" width="334.156" height="334.156" filterUnits="userSpaceOnUse" color-interpolation-filters="sRGB"><feFlood flood-opacity="0" result="BackgroundImageFix"></feFlood><feBlend mode="normal" in="SourceGraphic" in2="BackgroundImageFix" result="shape"></feBlend><feGaussianBlur stdDeviation="46.1717" result="effect1_foregroundBlur_302_733"></feGaussianBlur></filter><filter id="filter1_f_302_733" x="-184.412" y="-101.81" width="334.156" height="334.156" filterUnits="userSpaceOnUse" color-interpolation-filters="sRGB"><feFlood flood-opacity="0" result="BackgroundImageFix"></feFlood><feBlend mode="normal" in="SourceGraphic" in2="BackgroundImageFix" result="shape"></feBlend><feGaussianBlur stdDeviation="46.1717" result="effect1_foregroundBlur_302_733"></feGaussianBlur></filter></defs></svg>